<svg xmlns="http://www.w3.org/2000/svg" width="32" height="32" viewBox="115 80 334 334" role="img" aria-labelledby="title desc">
  <title id="title">Network alias (disabled)</title>
  <desc id="desc">A Fluent UI style ethernet port icon in a disabled state, showing an alias badge and an offline badge.</desc>
  <g fill="none" stroke="#424242" stroke-linecap="round" stroke-linejoin="round">
    <!-- Cutout outer box for bottom-left and bottom-right badges -->
    <path d="M139 135h239c8.8 0 16 7.2 16 16v160 M314 388 H205 M123 324V151c0-8.8 7.2-16 16-16" stroke-width="10"/>
    <path d="M171 186h173v101h-33v27h-27v23h-55v-23h-27v-27h-31z" stroke-width="10"/>
    <path d="M195 186v26" stroke-width="9"/>
    <path d="M213 186v26" stroke-width="9"/>
    <path d="M231 186v26" stroke-width="9"/>
    <path d="M249 186v26" stroke-width="9"/>
    <path d="M267 186v26" stroke-width="9"/>
    <path d="M285 186v26" stroke-width="9"/>
    <path d="M303 186v26" stroke-width="9"/>
    <path d="M321 186v26" stroke-width="9"/>
  </g>
  <!-- Alias Badge (Bottom-Right) -->
  <path fill="#424242" transform="translate(306 301.5) scale(6) rotate(-45 8 8)" d="M9.22 4.28a.75.75 0 0 1 1.06-1.06l3.5 3.5a.75.75 0 0 1 0 1.06l-3.5 3.5a.75.75 0 1 1-1.06-1.06L11.44 8H7.75a4.25 4.25 0 0 0-4.25 4.25a.75.75 0 0 1-1.5 0A5.75 5.75 0 0 1 7.75 6.5h3.69z" />
  <!-- Offline Badge (Bottom-Left) -->
  <path fill="#424242" transform="translate(123 324) scale(8)" d="M6.854 3.146a.5.5 0 0 1 0 .708L5.707 5l1.147 1.146a.5.5 0 1 1-.708.708L5 5.707L3.854 6.854a.5.5 0 1 1-.708-.708L4.293 5L3.146 3.854a.5.5 0 1 1 .708-.708L5 4.293l1.146-1.147a.5.5 0 0 1 .708 0M0 5a5 5 0 1 1 10 0A5 5 0 0 1 0 5m5-4a4 4 0 1 0 0 8a4 4 0 0 0 0-8"/>
</svg>
