<svg xmlns="http://www.w3.org/2000/svg" width="32" height="32" viewBox="115 80 334 334" role="img" aria-labelledby="title desc">
  <title id="title">Ethernet port</title>
  <desc id="desc">A Fluent UI style ethernet port icon with eight RJ45 contacts.</desc>
  <g fill="none" stroke="#424242" stroke-linecap="round" stroke-linejoin="round">
    <path d="M139 135h239c8.8 0 16 7.2 16 16v221c0 8.8-7.2 16-16 16H139c-8.8 0-16-7.2-16-16V151c0-8.8 7.2-16 16-16z" stroke-width="10"/>
    <path d="M171 186h173v101h-33v27h-27v23h-55v-23h-27v-27h-31z" stroke-width="10"/>
    <path d="M195 186v26" stroke-width="9"/>
    <path d="M213 186v26" stroke-width="9"/>
    <path d="M231 186v26" stroke-width="9"/>
    <path d="M249 186v26" stroke-width="9"/>
    <path d="M267 186v26" stroke-width="9"/>
    <path d="M285 186v26" stroke-width="9"/>
    <path d="M303 186v26" stroke-width="9"/>
    <path d="M321 186v26" stroke-width="9"/>
  </g>
</svg>
