<svg xmlns="http://www.w3.org/2000/svg" width="32" height="32" viewBox="0 0 48 48" fill="none" role="img" aria-labelledby="title desc">
  <title id="title">Network switch (disabled)</title>
  <desc id="desc">A Fluent UI style network switch icon showing three ethernet ports connected via a central bus in a disabled state.</desc>
  
  <!-- Connection bus dots -->
  <g fill="#0078D4">
      <circle cx="13.5" cy="24" r="1.5" />
      <circle cx="17.16" cy="24" r="1.5" />
      <circle cx="20.83" cy="24" r="1.5" />
      <circle cx="24.5" cy="24" r="1.5" />
      <circle cx="28.16" cy="24" r="1.5" />
      <circle cx="31.83" cy="24" r="1.5" />
      <circle cx="35.5" cy="24" r="1.5" />
  </g>

  <!-- Offline Badge (Bottom-Left) -->
  <g transform="translate(3, 29) scale(1.6)" fill="#0078D4">
      <path d="M6.854 3.146a.5.5 0 0 1 0 .708L5.707 5l1.147 1.146a.5.5 0 1 1-.708.708L5 5.707L3.854 6.854a.5.5 0 1 1-.708-.708L4.293 5L3.146 3.854a.5.5 0 1 1 .708-.708L5 4.293l1.146-1.147a.5.5 0 0 1 .708 0M0 5a5 5 0 1 1 10 0A5 5 0 0 1 0 5m5-4a4 4 0 1 0 0 8a4 4 0 0 0 0-8"/>
  </g>

  <!-- Port 1 (Top-Left) -->
  <g transform="translate(4, 2) scale(0.074) translate(-123, -135)" stroke="#0078D4" stroke-linecap="round" stroke-linejoin="round">
    <path d="M139 135h239c8.8 0 16 7.2 16 16v221c0 8.8-7.2 16-16 16H139c-8.8 0-16-7.2-16-16V151c0-8.8 7.2-16 16-16z" stroke-width="0.75" vector-effect="non-scaling-stroke" />
    <path d="M171 186h173v101h-33v27h-27v23h-55v-23h-27v-27h-31z" stroke-width="0.6" vector-effect="non-scaling-stroke" />
    <path d="M195 188v26" stroke-width="0.4" vector-effect="non-scaling-stroke" />
    <path d="M213 188v26" stroke-width="0.4" vector-effect="non-scaling-stroke" />
    <path d="M231 188v26" stroke-width="0.4" vector-effect="non-scaling-stroke" />
    <path d="M249 188v26" stroke-width="0.4" vector-effect="non-scaling-stroke" />
    <path d="M267 188v26" stroke-width="0.4" vector-effect="non-scaling-stroke" />
    <path d="M285 188v26" stroke-width="0.4" vector-effect="non-scaling-stroke" />
    <path d="M303 188v26" stroke-width="0.4" vector-effect="non-scaling-stroke" />
    <path d="M321 188v26" stroke-width="0.4" vector-effect="non-scaling-stroke" />
  </g>

  <!-- Port 2 (Top-Right) -->
  <g transform="translate(26, 2) scale(0.074) translate(-123, -135)" stroke="#0078D4" stroke-linecap="round" stroke-linejoin="round">
    <path d="M139 135h239c8.8 0 16 7.2 16 16v221c0 8.8-7.2 16-16 16H139c-8.8 0-16-7.2-16-16V151c0-8.8 7.2-16 16-16z" stroke-width="0.75" vector-effect="non-scaling-stroke" />
    <path d="M171 186h173v101h-33v27h-27v23h-55v-23h-27v-27h-31z" stroke-width="0.6" vector-effect="non-scaling-stroke" />
    <path d="M195 188v26" stroke-width="0.4" vector-effect="non-scaling-stroke" />
    <path d="M213 188v26" stroke-width="0.4" vector-effect="non-scaling-stroke" />
    <path d="M231 188v26" stroke-width="0.4" vector-effect="non-scaling-stroke" />
    <path d="M249 188v26" stroke-width="0.4" vector-effect="non-scaling-stroke" />
    <path d="M267 188v26" stroke-width="0.4" vector-effect="non-scaling-stroke" />
    <path d="M285 188v26" stroke-width="0.4" vector-effect="non-scaling-stroke" />
    <path d="M303 188v26" stroke-width="0.4" vector-effect="non-scaling-stroke" />
    <path d="M321 188v26" stroke-width="0.4" vector-effect="non-scaling-stroke" />
  </g>

  <!-- Port 3 (Bottom-Center) -->
  <g transform="translate(15, 27) scale(0.074) translate(-123, -135)" stroke="#0078D4" stroke-linecap="round" stroke-linejoin="round">
    <path d="M139 135h239c8.8 0 16 7.2 16 16v221c0 8.8-7.2 16-16 16H139c-8.8 0-16-7.2-16-16V151c0-8.8 7.2-16 16-16z" stroke-width="0.75" vector-effect="non-scaling-stroke" />
    <path d="M171 186h173v101h-33v27h-27v23h-55v-23h-27v-27h-31z" stroke-width="0.6" vector-effect="non-scaling-stroke" />
    <path d="M195 188v26" stroke-width="0.4" vector-effect="non-scaling-stroke" />
    <path d="M213 188v26" stroke-width="0.4" vector-effect="non-scaling-stroke" />
    <path d="M231 188v26" stroke-width="0.4" vector-effect="non-scaling-stroke" />
    <path d="M249 188v26" stroke-width="0.4" vector-effect="non-scaling-stroke" />
    <path d="M267 188v26" stroke-width="0.4" vector-effect="non-scaling-stroke" />
    <path d="M285 188v26" stroke-width="0.4" vector-effect="non-scaling-stroke" />
    <path d="M303 188v26" stroke-width="0.4" vector-effect="non-scaling-stroke" />
    <path d="M321 188v26" stroke-width="0.4" vector-effect="non-scaling-stroke" />
  </g>
</svg>
