<svg xmlns="http://www.w3.org/2000/svg" width="32" height="32" viewBox="0 0 48 48" fill="none" role="img" aria-labelledby="title desc">
  <title id="title">Network tunnel (disabled)</title>
  <desc id="desc">A Fluent UI style network tunnel icon showing two ethernet ports connected via a global tunnel in a disabled state.</desc>
  
  <!-- Connection L-line dots -->
  <g fill="#0078D4">
      <circle cx="25" cy="13.5" r="1.5" />
      <circle cx="34" cy="22.75" r="1.5" />
  </g>

  <!-- Connection Earth Icon -->
  <g transform="translate(25.6, 5.1) scale(1.4)" fill="#0078D4">
      <path d="M11 6A5 5 0 1 0 1 6a5 5 0 0 0 10 0m-6.99.5c.052 1.307.305 2.467.681 3.281A4 4 0 0 1 2.031 6.5zm1 0h1.98c-.047 1.075-.24 2.005-.504 2.664c-.153.383-.31.625-.434.756L6 9.97l-.052-.05c-.123-.13-.28-.373-.434-.756c-.264-.66-.457-1.589-.503-2.664m1.98-1H5.01c.047-1.075.24-2.005.504-2.664c.153-.383.31-.625.434-.756L6 2.03l.052.05c.123.13.28.373.434.756c.264.66.457 1.589.503 2.664m1 1H9.97a4 4 0 0 1-2.66 3.281c.376-.814.63-1.974.681-3.281m1.979-1H7.99c-.052-1.307-.305-2.467-.681-3.281A4 4 0 0 1 9.969 5.5m-5.96 0H2.032a4 4 0 0 1 2.66-3.281c-.376.814-.63 1.974-.681 3.281"/>
  </g>

  <!-- Offline Badge (Bottom-Left) -->
  <g transform="translate(3, 29) scale(1.6)" fill="#0078D4">
      <path d="M6.854 3.146a.5.5 0 0 1 0 .708L5.707 5l1.147 1.146a.5.5 0 1 1-.708.708L5 5.707L3.854 6.854a.5.5 0 1 1-.708-.708L4.293 5L3.146 3.854a.5.5 0 1 1 .708-.708L5 4.293l1.146-1.147a.5.5 0 0 1 .708 0M0 5a5 5 0 1 1 10 0A5 5 0 0 1 0 5m5-4a4 4 0 1 0 0 8a4 4 0 0 0 0-8"/>
  </g>

  <!-- Port 1 (Top-Left) -->
  <g transform="translate(4, 4) scale(0.074) translate(-123, -135)" stroke="#0078D4" stroke-linecap="round" stroke-linejoin="round">
    <path d="M139 135h239c8.8 0 16 7.2 16 16v221c0 8.8-7.2 16-16 16H139c-8.8 0-16-7.2-16-16V151c0-8.8 7.2-16 16-16z" stroke-width="0.75" vector-effect="non-scaling-stroke" />
    <path d="M171 186h173v101h-33v27h-27v23h-55v-23h-27v-27h-31z" stroke-width="0.6" vector-effect="non-scaling-stroke" />
    <path d="M195 188v26" stroke-width="0.4" vector-effect="non-scaling-stroke" />
    <path d="M213 188v26" stroke-width="0.4" vector-effect="non-scaling-stroke" />
    <path d="M231 188v26" stroke-width="0.4" vector-effect="non-scaling-stroke" />
    <path d="M249 188v26" stroke-width="0.4" vector-effect="non-scaling-stroke" />
    <path d="M267 188v26" stroke-width="0.4" vector-effect="non-scaling-stroke" />
    <path d="M285 188v26" stroke-width="0.4" vector-effect="non-scaling-stroke" />
    <path d="M303 188v26" stroke-width="0.4" vector-effect="non-scaling-stroke" />
    <path d="M321 188v26" stroke-width="0.4" vector-effect="non-scaling-stroke" />
  </g>

  <!-- Port 2 (Bottom-Right) -->
  <g transform="translate(24, 25) scale(0.074) translate(-123, -135)" stroke="#0078D4" stroke-linecap="round" stroke-linejoin="round">
    <path d="M139 135h239c8.8 0 16 7.2 16 16v221c0 8.8-7.2 16-16 16H139c-8.8 0-16-7.2-16-16V151c0-8.8 7.2-16 16-16z" stroke-width="0.75" vector-effect="non-scaling-stroke" />
    <path d="M171 186h173v101h-33v27h-27v23h-55v-23h-27v-27h-31z" stroke-width="0.6" vector-effect="non-scaling-stroke" />
    <path d="M195 188v26" stroke-width="0.4" vector-effect="non-scaling-stroke" />
    <path d="M213 188v26" stroke-width="0.4" vector-effect="non-scaling-stroke" />
    <path d="M231 188v26" stroke-width="0.4" vector-effect="non-scaling-stroke" />
    <path d="M249 188v26" stroke-width="0.4" vector-effect="non-scaling-stroke" />
    <path d="M267 188v26" stroke-width="0.4" vector-effect="non-scaling-stroke" />
    <path d="M285 188v26" stroke-width="0.4" vector-effect="non-scaling-stroke" />
    <path d="M303 188v26" stroke-width="0.4" vector-effect="non-scaling-stroke" />
    <path d="M321 188v26" stroke-width="0.4" vector-effect="non-scaling-stroke" />
  </g>
</svg>
